# Blender v2.78 (sub 0) OBJ File: ''
# www.blender.org
mtllib cube_room_flat.mtl
o Plane
v -1.872678 -1.000000 5.872678
v 1.872678 0.705895 5.872678
v 1.872678 -1.000000 5.872678
v -1.872678 0.705895 5.872678
v -1.872678 -1.000000 2.127322
v -1.872678 0.705895 2.127322
v 1.872678 -1.000000 2.127322
vn 1.0000 0.0000 0.0000
vn 0.0000 1.0000 -0.0000
vn 0.0000 0.0000 -1.0000
usemtl Material.002
s 1
f 5//1 4//1 1//1
f 5//1 6//1 4//1
usemtl Material.003
f 5//2 3//2 7//2
f 5//2 1//2 3//2
usemtl Material.004
f 1//3 2//3 3//3
f 1//3 4//3 2//3
o Cube.002
v -0.253842 -0.738162 4.253841
v 0.253842 -0.738162 3.746159
v 0.253841 -0.738162 4.253842
v -0.253842 -0.230479 4.253841
v 0.253842 -0.230479 3.746159
v -0.253841 -0.230479 3.746158
v -0.253842 -0.738162 3.746158
v 0.253841 -0.230479 4.253842
vn -0.0000 -1.0000 0.0000
vn 0.0000 1.0000 -0.0000
vn -1.0000 0.0000 -0.0000
vn 0.0000 -0.0000 -1.0000
vn 1.0000 0.0000 0.0000
vn -0.0000 0.0000 1.0000
usemtl Material.002
s 1
f 8//4 9//4 10//4
f 11//5 12//5 13//5
f 11//6 14//6 8//6
f 13//7 9//7 14//7
f 9//8 15//8 10//8
f 8//9 15//9 11//9
f 8//4 14//4 9//4
f 11//5 15//5 12//5
f 11//6 13//6 14//6
f 13//7 12//7 9//7
f 9//8 12//8 15//8
f 8//9 10//9 15//9
