# Blender v2.78 (sub 0) OBJ File: ''
# www.blender.org
mtllib cube_room.mtl
o Plane
v -1.872678 0.000000 -1.872678
v 1.872678 0.000000 -1.872678
v -1.872678 0.000000 1.872678
v 1.872678 0.000000 1.872678
v 1.872678 -1.705895 -1.872678
v -1.872678 -1.705895 1.872678
v 1.872678 -1.705895 1.872678
vn -1.0000 0.0000 0.0000
vn 0.0000 -1.0000 0.0000
vn 0.0000 0.0000 -1.0000
usemtl Material
s off
f 2//1 7//1 4//1
f 2//1 5//1 7//1
usemtl Material.001
f 2//2 3//2 1//2
f 2//2 4//2 3//2
usemtl Material.002
f 4//3 6//3 3//3
f 4//3 7//3 6//3
o Cube
v 0.253842 -0.261838 0.253841
v 0.253842 -0.261838 -0.253842
v -0.253842 -0.261838 -0.253841
v -0.253841 -0.261838 0.253842
v 0.253842 -0.769521 0.253841
v 0.253841 -0.769521 -0.253842
v -0.253842 -0.769521 -0.253841
v -0.253841 -0.769521 0.253842
vn 0.0000 1.0000 0.0000
vn 0.0000 -1.0000 -0.0000
vn 1.0000 0.0000 0.0000
vn 0.0000 0.0000 -1.0000
vn -1.0000 0.0000 0.0000
vn 0.0000 -0.0000 1.0000
usemtl Material
s off
f 8//4 10//4 11//4
f 12//5 14//5 13//5
f 12//6 9//6 8//6
f 13//7 10//7 9//7
f 10//8 15//8 11//8
f 8//9 15//9 12//9
f 8//4 9//4 10//4
f 12//5 15//5 14//5
f 12//6 13//6 9//6
f 13//7 14//7 10//7
f 10//8 14//8 15//8
f 8//9 11//9 15//9
