# Blender v2.78 (sub 0) OBJ File: ''
# www.blender.org
mtllib cube_subdiv_1.mtl
o Cube_Cube.006
v -1.004648 0.002644 -0.011739
v -0.560203 0.558199 -0.567294
v -0.754648 0.002644 -0.761739
v -0.560203 -0.552912 -0.567294
v -0.754648 -0.747356 -0.011739
v -0.560203 -0.552912 0.543817
v -0.754648 0.002644 0.738261
v -0.560203 0.558199 0.543817
v -0.754648 0.752644 -0.011739
v -0.004648 0.002644 0.988261
v -0.004648 -0.747356 0.738261
v 0.550908 -0.552912 0.543817
v 0.745352 0.002644 0.738261
v 0.550908 0.558199 0.543817
v -0.004648 0.752644 0.738261
v 0.995352 0.002644 -0.011739
v 0.745352 -0.747356 -0.011739
v 0.550908 -0.552912 -0.567294
v 0.745352 0.002644 -0.761739
v 0.550908 0.558199 -0.567294
v 0.745352 0.752644 -0.011739
v -0.004648 0.002644 -1.011739
v -0.004648 -0.747356 -0.761739
v -0.004648 0.752644 -0.761739
v -0.004648 1.002644 -0.011739
v -0.004648 -0.997356 -0.011739
vn -1.0000 0.0000 0.0000
vn -0.5773 0.5773 -0.5773
vn -0.7071 0.0000 -0.7071
vn -0.5773 -0.5773 -0.5773
vn -0.7071 -0.7071 0.0000
vn -0.5773 -0.5773 0.5773
vn -0.7071 0.0000 0.7071
vn -0.5773 0.5773 0.5773
vn -0.7071 0.7071 0.0000
vn 0.0000 0.0000 1.0000
vn 0.0000 -0.7071 0.7071
vn 0.5773 -0.5773 0.5773
vn 0.7071 0.0000 0.7071
vn 0.5773 0.5773 0.5773
vn 0.0000 0.7071 0.7071
vn 1.0000 0.0000 0.0000
vn 0.7071 -0.7071 0.0000
vn 0.5773 -0.5773 -0.5773
vn 0.7071 0.0000 -0.7071
vn 0.5773 0.5773 -0.5773
vn 0.7071 0.7071 0.0000
vn 0.0000 0.0000 -1.0000
vn 0.0000 -0.7071 -0.7071
vn 0.0000 0.7071 -0.7071
vn 0.0000 1.0000 0.0000
vn 0.0000 -1.0000 0.0000
usemtl None.006
s 1
f 1//1 2//2 3//3
f 1//1 4//4 5//5
f 1//1 6//6 7//7
f 1//1 8//8 9//9
f 10//10 8//8 7//7
f 10//10 6//6 11//11
f 10//10 12//12 13//13
f 10//10 14//14 15//15
f 16//16 14//14 13//13
f 16//16 12//12 17//17
f 16//16 18//18 19//19
f 16//16 20//20 21//21
f 22//22 20//20 19//19
f 22//22 18//18 23//23
f 22//22 4//4 3//3
f 22//22 2//2 24//24
f 25//25 8//8 15//15
f 25//25 14//14 21//21
f 25//25 20//20 24//24
f 25//25 2//2 9//9
f 26//26 12//12 11//11
f 26//26 6//6 5//5
f 26//26 4//4 23//23
f 26//26 18//18 17//17
f 1//1 9//9 2//2
f 1//1 3//3 4//4
f 1//1 5//5 6//6
f 1//1 7//7 8//8
f 10//10 15//15 8//8
f 10//10 7//7 6//6
f 10//10 11//11 12//12
f 10//10 13//13 14//14
f 16//16 21//21 14//14
f 16//16 13//13 12//12
f 16//16 17//17 18//18
f 16//16 19//19 20//20
f 22//22 24//24 20//20
f 22//22 19//19 18//18
f 22//22 23//23 4//4
f 22//22 3//3 2//2
f 25//25 9//9 8//8
f 25//25 15//15 14//14
f 25//25 21//21 20//20
f 25//25 24//24 2//2
f 26//26 17//17 12//12
f 26//26 11//11 6//6
f 26//26 5//5 4//4
f 26//26 23//23 18//18
