# Blender v2.78 (sub 0) OBJ File: ''
# www.blender.org
mtllib cube_subdiv_1.mtl
o Cube_Cube.001
v -1.004648 0.002644 -0.011739
v -0.004648 0.002644 0.988261
v 0.995352 0.002644 -0.011739
v -0.004648 0.002644 -1.011739
v -0.004648 1.002644 -0.011739
v -0.004648 -0.997356 -0.011739
v -0.754648 0.752644 -0.011739
v -0.754648 0.002644 -0.761739
v -0.754648 -0.747356 -0.011739
v -0.754648 0.002644 0.738261
v -0.004648 0.752644 0.738261
v -0.004648 -0.747356 0.738261
v 0.745352 0.002644 0.738261
v 0.745352 0.752644 -0.011739
v 0.745352 -0.747356 -0.011739
v 0.745352 0.002644 -0.761739
v -0.004648 0.752644 -0.761739
v -0.004648 -0.747356 -0.761739
v -0.560203 0.558199 -0.567294
v -0.560203 -0.552912 -0.567294
v -0.560203 0.558199 0.543817
v -0.560203 -0.552912 0.543817
v 0.550908 0.558199 -0.567294
v 0.550908 -0.552912 -0.567294
v 0.550908 0.558199 0.543817
v 0.550908 -0.552912 0.543817
vn -0.8675 0.4048 -0.2892
vn -0.8675 -0.2892 -0.4048
vn -0.8675 -0.4048 0.2892
vn -0.8675 0.2892 0.4048
vn -0.2892 0.4048 0.8675
vn -0.4048 -0.2892 0.8675
vn 0.2892 -0.4048 0.8675
vn 0.4048 0.2892 0.8675
vn 0.8675 0.4048 0.2892
vn 0.8675 -0.2892 0.4048
vn 0.8675 -0.4048 -0.2892
vn 0.8675 0.2892 -0.4048
vn 0.2892 0.4048 -0.8675
vn 0.4048 -0.2892 -0.8675
vn -0.2892 -0.4048 -0.8675
vn -0.4048 0.2892 -0.8675
vn -0.4048 0.8675 0.2892
vn 0.2892 0.8675 0.4048
vn 0.4048 0.8675 -0.2892
vn -0.2892 0.8675 -0.4048
vn 0.4048 -0.8675 0.2892
vn -0.2892 -0.8675 0.4048
vn -0.4048 -0.8675 -0.2892
vn 0.2892 -0.8675 -0.4048
vn -0.8675 0.2892 -0.4048
vn -0.8675 -0.4048 -0.2892
vn -0.8675 -0.2892 0.4048
vn -0.8675 0.4048 0.2892
vn -0.4048 0.2892 0.8675
vn -0.2892 -0.4048 0.8675
vn 0.4048 -0.2892 0.8675
vn 0.2892 0.4048 0.8675
vn 0.8675 0.2892 0.4048
vn 0.8675 -0.4048 0.2892
vn 0.8675 -0.2892 -0.4048
vn 0.8675 0.4048 -0.2892
vn 0.4048 0.2892 -0.8675
vn 0.2892 -0.4048 -0.8675
vn -0.4048 -0.2892 -0.8675
vn -0.2892 0.4048 -0.8675
vn -0.2892 0.8675 0.4048
vn 0.4048 0.8675 0.2892
vn 0.2892 0.8675 -0.4048
vn -0.4048 0.8675 -0.2892
vn 0.2892 -0.8675 0.4048
vn -0.4048 -0.8675 0.2892
vn -0.2892 -0.8675 -0.4048
vn 0.4048 -0.8675 -0.2892
usemtl None
s off
f 1//1 19//1 8//1
f 1//2 20//2 9//2
f 1//3 22//3 10//3
f 1//4 21//4 7//4
f 2//5 21//5 10//5
f 2//6 22//6 12//6
f 2//7 26//7 13//7
f 2//8 25//8 11//8
f 3//9 25//9 13//9
f 3//10 26//10 15//10
f 3//11 24//11 16//11
f 3//12 23//12 14//12
f 4//13 23//13 16//13
f 4//14 24//14 18//14
f 4//15 20//15 8//15
f 4//16 19//16 17//16
f 5//17 21//17 11//17
f 5//18 25//18 14//18
f 5//19 23//19 17//19
f 5//20 19//20 7//20
f 6//21 26//21 12//21
f 6//22 22//22 9//22
f 6//23 20//23 18//23
f 6//24 24//24 15//24
f 1//25 7//25 19//25
f 1//26 8//26 20//26
f 1//27 9//27 22//27
f 1//28 10//28 21//28
f 2//29 11//29 21//29
f 2//30 10//30 22//30
f 2//31 12//31 26//31
f 2//32 13//32 25//32
f 3//33 14//33 25//33
f 3//34 13//34 26//34
f 3//35 15//35 24//35
f 3//36 16//36 23//36
f 4//37 17//37 23//37
f 4//38 16//38 24//38
f 4//39 18//39 20//39
f 4//40 8//40 19//40
f 5//41 7//41 21//41
f 5//42 11//42 25//42
f 5//43 14//43 23//43
f 5//44 17//44 19//44
f 6//45 15//45 26//45
f 6//46 12//46 22//46
f 6//47 9//47 20//47
f 6//48 18//48 24//48
