# Blender v2.78 (sub 0) OBJ File: ''
# www.blender.org
mtllib cube_subdiv_2.mtl
o Cube_Cube.007
v -0.768537 0.329033 -0.338128
v -0.883120 0.002644 -0.011739
v -0.824092 0.353338 -0.011739
v -0.603606 0.601602 -0.313822
v -0.513907 0.511903 -0.520998
v -0.603606 0.304727 -0.610697
v -0.824092 0.002644 -0.362433
v -0.768537 -0.323745 -0.338128
v -0.603606 -0.299440 -0.610697
v -0.513907 -0.506616 -0.520998
v -0.603606 -0.596315 -0.313822
v -0.824092 -0.348051 -0.011739
v -0.768537 -0.323745 0.314650
v -0.603606 -0.596315 0.290345
v -0.513907 -0.506616 0.497521
v -0.603606 -0.299440 0.587220
v -0.824092 0.002644 0.338956
v -0.768537 0.329033 0.314650
v -0.603606 0.304727 0.587220
v -0.513907 0.511903 0.497521
v -0.603606 0.601602 0.290345
v -0.331037 0.329033 0.752150
v -0.004648 0.002644 0.866734
v -0.004648 0.353338 0.807706
v -0.306731 0.601602 0.587220
v -0.355342 0.002644 0.807706
v -0.331037 -0.323745 0.752150
v -0.306731 -0.596315 0.587220
v -0.004648 -0.348051 0.807706
v 0.321741 -0.323745 0.752150
v 0.297436 -0.596315 0.587220
v 0.504612 -0.506616 0.497521
v 0.594311 -0.299440 0.587220
v 0.346047 0.002644 0.807706
v 0.321741 0.329033 0.752150
v 0.594311 0.304727 0.587220
v 0.504612 0.511903 0.497521
v 0.297436 0.601602 0.587220
v 0.759241 0.329033 0.314650
v 0.873825 0.002644 -0.011739
v 0.814797 0.353338 -0.011739
v 0.594311 0.601602 0.290345
v 0.814797 0.002644 0.338956
v 0.759241 -0.323745 0.314650
v 0.594311 -0.596315 0.290345
v 0.814797 -0.348051 -0.011739
v 0.759241 -0.323745 -0.338128
v 0.594311 -0.596315 -0.313822
v 0.504612 -0.506616 -0.520998
v 0.594311 -0.299440 -0.610697
v 0.814797 0.002644 -0.362433
v 0.759241 0.329033 -0.338128
v 0.594311 0.304727 -0.610697
v 0.504612 0.511903 -0.520998
v 0.594311 0.601602 -0.313822
v 0.321741 0.329033 -0.775628
v -0.004648 0.002644 -0.890211
v -0.004648 0.353338 -0.831183
v 0.297436 0.601602 -0.610697
v 0.346047 0.002644 -0.831183
v 0.321741 -0.323745 -0.775628
v 0.297436 -0.596315 -0.610697
v -0.004648 -0.348051 -0.831183
v -0.331037 -0.323745 -0.775628
v -0.306731 -0.596315 -0.610697
v -0.355342 0.002644 -0.831183
v -0.331037 0.329033 -0.775628
v -0.306731 0.601602 -0.610697
v -0.331037 0.766533 0.314650
v -0.004648 0.881116 -0.011739
v -0.355342 0.822088 -0.011739
v -0.004648 0.822088 0.338956
v 0.321741 0.766533 0.314650
v 0.346047 0.822088 -0.011739
v 0.321741 0.766533 -0.338128
v -0.004648 0.822088 -0.362433
v -0.331037 0.766533 -0.338128
v 0.321741 -0.761245 0.314650
v -0.004648 -0.875829 -0.011739
v 0.346047 -0.816801 -0.011739
v -0.004648 -0.816801 0.338956
v -0.331037 -0.761245 0.314650
v -0.355342 -0.816801 -0.011739
v -0.331037 -0.761245 -0.338128
v -0.004648 -0.816801 -0.362433
v 0.321741 -0.761245 -0.338128
v -0.647877 0.645873 -0.011739
v -0.647877 0.002644 -0.654968
v -0.647877 -0.640586 -0.011739
v -0.647877 0.002644 0.631490
v -0.004648 0.645873 0.631490
v -0.004648 -0.640586 0.631490
v 0.638582 0.002644 0.631490
v 0.638582 0.645873 -0.011739
v 0.638582 -0.640586 -0.011739
v 0.638582 0.002644 -0.654968
v -0.004648 0.645873 -0.654968
v -0.004648 -0.640586 -0.654968
vn -0.8717 0.3465 -0.3465
vn -1.0000 0.0000 0.0000
vn -0.9360 0.3519 0.0000
vn -0.6629 0.6629 -0.3479
vn -0.5773 0.5773 -0.5773
vn -0.6629 0.3479 -0.6629
vn -0.9360 0.0000 -0.3519
vn -0.8717 -0.3465 -0.3465
vn -0.6629 -0.3479 -0.6629
vn -0.5773 -0.5773 -0.5773
vn -0.6629 -0.6629 -0.3479
vn -0.9360 -0.3519 0.0000
vn -0.8717 -0.3465 0.3465
vn -0.6629 -0.6629 0.3479
vn -0.5773 -0.5773 0.5773
vn -0.6629 -0.3479 0.6629
vn -0.9360 0.0000 0.3519
vn -0.8717 0.3465 0.3465
vn -0.6629 0.3479 0.6629
vn -0.5773 0.5773 0.5773
vn -0.6629 0.6629 0.3479
vn -0.3465 0.3465 0.8717
vn 0.0000 0.0000 1.0000
vn 0.0000 0.3519 0.9360
vn -0.3479 0.6629 0.6629
vn -0.3519 0.0000 0.9360
vn -0.3465 -0.3465 0.8717
vn -0.3479 -0.6629 0.6629
vn 0.0000 -0.3519 0.9360
vn 0.3465 -0.3465 0.8717
vn 0.3479 -0.6629 0.6629
vn 0.5773 -0.5773 0.5773
vn 0.6629 -0.3479 0.6629
vn 0.3519 0.0000 0.9360
vn 0.3465 0.3465 0.8717
vn 0.6629 0.3479 0.6629
vn 0.5773 0.5773 0.5773
vn 0.3479 0.6629 0.6629
vn 0.8717 0.3465 0.3465
vn 1.0000 0.0000 0.0000
vn 0.9360 0.3519 0.0000
vn 0.6629 0.6629 0.3479
vn 0.9360 0.0000 0.3519
vn 0.8717 -0.3465 0.3465
vn 0.6629 -0.6629 0.3479
vn 0.9360 -0.3519 0.0000
vn 0.8717 -0.3465 -0.3465
vn 0.6629 -0.6629 -0.3479
vn 0.5773 -0.5773 -0.5773
vn 0.6629 -0.3479 -0.6629
vn 0.9360 0.0000 -0.3519
vn 0.8717 0.3465 -0.3465
vn 0.6629 0.3479 -0.6629
vn 0.5773 0.5773 -0.5773
vn 0.6629 0.6629 -0.3479
vn 0.3465 0.3465 -0.8717
vn 0.0000 0.0000 -1.0000
vn 0.0000 0.3519 -0.9360
vn 0.3479 0.6629 -0.6629
vn 0.3519 0.0000 -0.9360
vn 0.3465 -0.3465 -0.8717
vn 0.3479 -0.6629 -0.6629
vn 0.0000 -0.3519 -0.9360
vn -0.3465 -0.3465 -0.8717
vn -0.3479 -0.6629 -0.6629
vn -0.3519 0.0000 -0.9360
vn -0.3465 0.3465 -0.8717
vn -0.3479 0.6629 -0.6629
vn -0.3465 0.8717 0.3465
vn 0.0000 1.0000 0.0000
vn -0.3519 0.9360 0.0000
vn 0.0000 0.9360 0.3519
vn 0.3465 0.8717 0.3465
vn 0.3519 0.9360 0.0000
vn 0.3465 0.8717 -0.3465
vn 0.0000 0.9360 -0.3519
vn -0.3465 0.8717 -0.3465
vn 0.3465 -0.8717 0.3465
vn 0.0000 -1.0000 0.0000
vn 0.3519 -0.9360 0.0000
vn 0.0000 -0.9360 0.3519
vn -0.3465 -0.8717 0.3465
vn -0.3519 -0.9360 0.0000
vn -0.3465 -0.8717 -0.3465
vn 0.0000 -0.9360 -0.3519
vn 0.3465 -0.8717 -0.3465
vn -0.7071 0.7071 0.0000
vn -0.7071 0.0000 -0.7071
vn -0.7071 -0.7071 0.0000
vn -0.7071 0.0000 0.7071
vn 0.0000 0.7071 0.7071
vn 0.0000 -0.7071 0.7071
vn 0.7071 0.0000 0.7071
vn 0.7071 0.7071 0.0000
vn 0.7071 -0.7071 0.0000
vn 0.7071 0.0000 -0.7071
vn 0.0000 0.7071 -0.7071
vn 0.0000 -0.7071 -0.7071
usemtl None.006
s 1
f 1//1 2//2 3//3
f 3//3 4//4 1//1
f 1//1 5//5 6//6
f 6//6 7//7 1//1
f 8//8 2//2 7//7
f 7//7 9//9 8//8
f 8//8 10//10 11//11
f 11//11 12//12 8//8
f 13//13 2//2 12//12
f 12//12 14//14 13//13
f 13//13 15//15 16//16
f 16//16 17//17 13//13
f 18//18 2//2 17//17
f 17//17 19//19 18//18
f 18//18 20//20 21//21
f 21//21 3//3 18//18
f 22//22 23//23 24//24
f 24//24 25//25 22//22
f 22//22 20//20 19//19
f 19//19 26//26 22//22
f 27//27 23//23 26//26
f 26//26 16//16 27//27
f 27//27 15//15 28//28
f 28//28 29//29 27//27
f 30//30 23//23 29//29
f 29//29 31//31 30//30
f 30//30 32//32 33//33
f 33//33 34//34 30//30
f 35//35 23//23 34//34
f 34//34 36//36 35//35
f 35//35 37//37 38//38
f 38//38 24//24 35//35
f 39//39 40//40 41//41
f 41//41 42//42 39//39
f 39//39 37//37 36//36
f 36//36 43//43 39//39
f 44//44 40//40 43//43
f 43//43 33//33 44//44
f 44//44 32//32 45//45
f 45//45 46//46 44//44
f 47//47 40//40 46//46
f 46//46 48//48 47//47
f 47//47 49//49 50//50
f 50//50 51//51 47//47
f 52//52 40//40 51//51
f 51//51 53//53 52//52
f 52//52 54//54 55//55
f 55//55 41//41 52//52
f 56//56 57//57 58//58
f 58//58 59//59 56//56
f 56//56 54//54 53//53
f 53//53 60//60 56//56
f 61//61 57//57 60//60
f 60//60 50//50 61//61
f 61//61 49//49 62//62
f 62//62 63//63 61//61
f 64//64 57//57 63//63
f 63//63 65//65 64//64
f 64//64 10//10 9//9
f 9//9 66//66 64//64
f 67//67 57//57 66//66
f 66//66 6//6 67//67
f 67//67 5//5 68//68
f 68//68 58//58 67//67
f 69//69 70//70 71//71
f 71//71 21//21 69//69
f 69//69 20//20 25//25
f 25//25 72//72 69//69
f 73//73 70//70 72//72
f 72//72 38//38 73//73
f 73//73 37//37 42//42
f 42//42 74//74 73//73
f 75//75 70//70 74//74
f 74//74 55//55 75//75
f 75//75 54//54 59//59
f 59//59 76//76 75//75
f 77//77 70//70 76//76
f 76//76 68//68 77//77
f 77//77 5//5 4//4
f 4//4 71//71 77//77
f 78//78 79//79 80//80
f 80//80 45//45 78//78
f 78//78 32//32 31//31
f 31//31 81//81 78//78
f 82//82 79//79 81//81
f 81//81 28//28 82//82
f 82//82 15//15 14//14
f 14//14 83//83 82//82
f 84//84 79//79 83//83
f 83//83 11//11 84//84
f 84//84 10//10 65//65
f 65//65 85//85 84//84
f 86//86 79//79 85//85
f 85//85 62//62 86//86
f 86//86 49//49 48//48
f 48//48 80//80 86//86
f 1//1 7//7 2//2
f 3//3 87//87 4//4
f 1//1 4//4 5//5
f 6//6 88//88 7//7
f 8//8 12//12 2//2
f 7//7 88//88 9//9
f 8//8 9//9 10//10
f 11//11 89//89 12//12
f 13//13 17//17 2//2
f 12//12 89//89 14//14
f 13//13 14//14 15//15
f 16//16 90//90 17//17
f 18//18 3//3 2//2
f 17//17 90//90 19//19
f 18//18 19//19 20//20
f 21//21 87//87 3//3
f 22//22 26//26 23//23
f 24//24 91//91 25//25
f 22//22 25//25 20//20
f 19//19 90//90 26//26
f 27//27 29//29 23//23
f 26//26 90//90 16//16
f 27//27 16//16 15//15
f 28//28 92//92 29//29
f 30//30 34//34 23//23
f 29//29 92//92 31//31
f 30//30 31//31 32//32
f 33//33 93//93 34//34
f 35//35 24//24 23//23
f 34//34 93//93 36//36
f 35//35 36//36 37//37
f 38//38 91//91 24//24
f 39//39 43//43 40//40
f 41//41 94//94 42//42
f 39//39 42//42 37//37
f 36//36 93//93 43//43
f 44//44 46//46 40//40
f 43//43 93//93 33//33
f 44//44 33//33 32//32
f 45//45 95//95 46//46
f 47//47 51//51 40//40
f 46//46 95//95 48//48
f 47//47 48//48 49//49
f 50//50 96//96 51//51
f 52//52 41//41 40//40
f 51//51 96//96 53//53
f 52//52 53//53 54//54
f 55//55 94//94 41//41
f 56//56 60//60 57//57
f 58//58 97//97 59//59
f 56//56 59//59 54//54
f 53//53 96//96 60//60
f 61//61 63//63 57//57
f 60//60 96//96 50//50
f 61//61 50//50 49//49
f 62//62 98//98 63//63
f 64//64 66//66 57//57
f 63//63 98//98 65//65
f 64//64 65//65 10//10
f 9//9 88//88 66//66
f 67//67 58//58 57//57
f 66//66 88//88 6//6
f 67//67 6//6 5//5
f 68//68 97//97 58//58
f 69//69 72//72 70//70
f 71//71 87//87 21//21
f 69//69 21//21 20//20
f 25//25 91//91 72//72
f 73//73 74//74 70//70
f 72//72 91//91 38//38
f 73//73 38//38 37//37
f 42//42 94//94 74//74
f 75//75 76//76 70//70
f 74//74 94//94 55//55
f 75//75 55//55 54//54
f 59//59 97//97 76//76
f 77//77 71//71 70//70
f 76//76 97//97 68//68
f 77//77 68//68 5//5
f 4//4 87//87 71//71
f 78//78 81//81 79//79
f 80//80 95//95 45//45
f 78//78 45//45 32//32
f 31//31 92//92 81//81
f 82//82 83//83 79//79
f 81//81 92//92 28//28
f 82//82 28//28 15//15
f 14//14 89//89 83//83
f 84//84 85//85 79//79
f 83//83 89//89 11//11
f 84//84 11//11 10//10
f 65//65 98//98 85//85
f 86//86 80//80 79//79
f 85//85 98//98 62//62
f 86//86 62//62 49//49
f 48//48 95//95 80//80
